<svg xmlns="http://www.w3.org/2000/svg" xmlns:xlink="http://www.w3.org/1999/xlink" viewBox="0 0 130 130"><defs><circle id="a" cx="65" cy="65" r="65"/></defs><g fill="none" fill-rule="evenodd"><mask id="b" fill="#fff"><use xlink:href="#a"/></mask><use fill="#F5F5F5" xlink:href="#a"/><g mask="url(#b)"><g transform="translate(23.4 20.8)"><rect fill="#AAA" x="1.823" y="10.94" width="68.073" height="64.426" rx="4.03"/><rect fill="#FFF" y="8.509" width="68.073" height="64.426" rx="4.03"/><path fill="#D8D8D8" d="M6.078 57.132h6.078v6.078H6.078zM14.587 57.132h6.078v6.078h-6.078zM23.096 57.132h6.078v6.078h-6.078zM31.605 57.132h6.078v6.078h-6.078z"/><path fill="#F5F5F5" d="M40.114 57.132h6.078v6.078h-6.078z"/><g fill="#D8D8D8"><path d="M6.078 31.605h6.078v6.078H6.078zM14.587 31.605h6.078v6.078h-6.078zM23.096 31.605h6.078v6.078h-6.078zM31.605 31.605h6.078v6.078h-6.078zM40.114 31.605h6.078v6.078h-6.078zM48.623 31.605H54.7v6.078h-6.078zM57.133 31.605h6.078v6.078h-6.078z"/></g><path fill="#F5F5F5" d="M6.078 23.096h6.078v6.078H6.078zM14.587 23.096h6.078v6.078h-6.078zM23.096 23.096h6.078v6.078h-6.078z"/><path fill="#D8D8D8" d="M31.605 23.096h6.078v6.078h-6.078zM40.114 23.096h6.078v6.078h-6.078zM48.623 23.096H54.7v6.078h-6.078zM57.133 23.096h6.078v6.078h-6.078z"/><g><path fill="#D8D8D8" d="M6.078 40.114h6.078v6.078H6.078zM14.587 40.114h6.078v6.078h-6.078zM23.096 40.114h6.078v6.078h-6.078z"/><path fill="#FAAB43" d="M31.605 40.114h6.078v6.078h-6.078z"/><path fill="#D8D8D8" d="M40.114 40.114h6.078v6.078h-6.078zM48.623 40.114H54.7v6.078h-6.078zM57.133 40.114h6.078v6.078h-6.078z"/></g><g><path fill="#D8D8D8" d="M6.078 48.623h6.078v6.078H6.078z"/><path fill="#FAAB43" d="M14.587 48.623h6.078v6.078h-6.078z"/><path fill="#D8D8D8" d="M23.096 48.623h6.078v6.078h-6.078zM31.605 48.623h6.078v6.078h-6.078z"/></g><path d="M4.03 8.51h60.013a4.03 4.03 0 014.03 4.03v4.478H0V12.54a4.03 4.03 0 014.03-4.03z" fill="#7786B7"/><rect stroke="#EBECEC" stroke-width="1.008" fill="#AAA" x="13.371" width="4.862" height="13.371" rx="2.431"/><rect stroke="#EBECEC" stroke-width="1.008" fill="#AAA" x="49.839" width="4.862" height="13.371" rx="2.431"/></g><g transform="translate(68.377 73.07)"><circle fill="#00BF8F" cx="18.842" cy="18.842" r="18.842"/><path stroke="#FFF" stroke-width="3.022" stroke-linecap="round" d="M18.842 7.294v11.548M24.753 24.454l-5.911-5.613"/></g></g></g></svg>
