<svg xmlns="http://www.w3.org/2000/svg" xmlns:xlink="http://www.w3.org/1999/xlink" viewBox="0 0 130 130"><defs><path d="M26.917 2.773h35.62a6.24 6.24 0 015.973 4.438l15.294 50.704a6.24 6.24 0 01-5.974 8.042H11.552a6.24 6.24 0 01-5.972-8.05L20.945 7.204a6.24 6.24 0 015.972-4.43z" id="a"/><path id="c" d="M9.643.04H0v18.168h19.286V.04z"/></defs><g fill="none" fill-rule="evenodd"><circle fill="#F5F5F5" cx="65" cy="65" r="65"/><g transform="translate(21.125 31.46)"><path d="M66.277.6c1.645 0 3.195.538 4.453 1.469a7.478 7.478 0 012.707 3.828h0l17.216 56.25a7.465 7.465 0 01-.547 5.705 7.488 7.488 0 01-6.613 3.975h0H8.661a7.465 7.465 0 01-5.295-2.193 7.488 7.488 0 01-1.862-7.496h0L18.8 5.888a7.478 7.478 0 012.708-3.822 7.478 7.478 0 014.45-1.465h0z" stroke="#DAD9D9" stroke-width="2.496" fill="#FFF"/><path d="M64.428-1.248c1.645 0 3.195.537 4.453 1.468a7.478 7.478 0 012.707 3.828h0l17.217 56.25a7.465 7.465 0 01-.548 5.706 7.488 7.488 0 01-6.613 3.975h0H6.812a7.465 7.465 0 01-5.295-2.194A7.488 7.488 0 01-.345 60.29h0L16.95 4.04A7.478 7.478 0 0119.66.217a7.478 7.478 0 014.449-1.465h0z" stroke="#FFF" stroke-width="2.496" fill="#FFF"/><mask id="b" fill="#fff"><use xlink:href="#a"/></mask><use fill="#EBECEC" xlink:href="#a"/><path fill="#00BF8F" mask="url(#b)" d="M39.85 9.613l7.753 17.797h27.47L70.427 9.613zM8.849 42.377L4.906 53.411h26.176l-2.494-11.034z"/><path stroke="#FFF" stroke-width="6.24" stroke-linecap="square" mask="url(#b)" d="M29.12 42.987l5.084 24.035"/><path stroke="#FFF" stroke-width="4.992" stroke-linecap="square" mask="url(#b)" d="M42.062 9.707h27.175"/><path stroke="#FFF" stroke-width="6.24" stroke-linecap="square" mask="url(#b)" d="M50.382 41.879H10.943M49.92 27.721h24.992"/><path stroke="#FFF" stroke-width="7.488" stroke-linecap="square" mask="url(#b)" d="M34.549-.302l30.837 68.731"/><path stroke="#FFF" stroke-width="6.24" stroke-linecap="square" mask="url(#b)" d="M40.213 18.027H18.027M30.663 54.08H6.025"/><path stroke="#1FAEE3" stroke-width="2.496" mask="url(#b)" d="M6.405 54.186h25.049l-2.61-12.036h24.509l-9.965-22.054"/></g><path d="M65.036 5.876c4.94-.006 9.68 1.91 13.176 5.327 3.501 3.42 5.47 8.063 5.475 12.906 0 10.15-15.067 25.895-17.796 28.643l-.38.38a13.389 13.389 0 01-.444-.326c-3.572-2.753-18.682-18.526-18.682-28.698.006-5.042 2.098-9.604 5.477-12.905 3.374-3.295 8.032-5.332 13.174-5.327z" stroke="#EF646B" stroke-width="1.248" fill="#EF646B" fill-rule="nonzero"/><g transform="translate(52.001 11.492)"><circle stroke="#CCC" stroke-width="1.248" fill="#ECECEC" cx="12.48" cy="12.48" r="12.48"/><g transform="translate(2.836 4.28)"><mask id="d" fill="#fff"><use xlink:href="#c"/></mask><path d="M17.964 2.499A5.567 5.567 0 0013.722.546h-1.36A7.49 7.49 0 009.643.04a7.488 7.488 0 00-2.72.507H5.565a5.567 5.567 0 00-4.242 1.952A5.501 5.501 0 00.074 6.98l.797 4.804a2.722 2.722 0 002.7 2.278h.154a7.495 7.495 0 003.741 2.56 2.27 2.27 0 002.177 1.587 2.27 2.27 0 002.176-1.587 7.495 7.495 0 003.742-2.56h.154c1.346 0 2.481-.958 2.7-2.278l.796-4.805a5.502 5.502 0 00-1.247-4.48" fill="#BABABA" mask="url(#d)"/></g><path d="M18.552 17.693H11.97V5.474h4.588c3.031 0 5.339 2.704 4.846 5.679l-.797 4.804a2.081 2.081 0 01-2.056 1.736" fill="#CCC"/><path d="M6.407 17.693h6.58V5.474H8.4c-3.032 0-5.34 2.704-4.846 5.679l.796 4.804a2.08 2.08 0 002.056 1.736" fill="#CCC"/><path d="M12.48 20.573c-3.78 0-6.842-3.046-6.842-6.804v-1.998c0-3.758 3.063-6.804 6.841-6.804 3.779 0 6.842 3.046 6.842 6.804v1.998c0 3.757-3.063 6.804-6.842 6.804" fill="#CCC"/><path d="M10.22 11.578a1.04 1.04 0 01-1.043 1.037 1.04 1.04 0 01-1.043-1.037 1.04 1.04 0 011.043-1.036 1.04 1.04 0 011.042 1.036" fill="#A9A9A9"/><path d="M9.12 11.13a.28.28 0 01-.281.28.28.28 0 01-.2-.479.28.28 0 01.398 0 .28.28 0 01.083.199" fill="#FFF"/><path d="M16.824 11.578a1.04 1.04 0 01-1.042 1.037 1.04 1.04 0 01-1.043-1.037 1.04 1.04 0 011.043-1.036 1.04 1.04 0 011.042 1.036" fill="#A9A9A9"/><path d="M15.725 11.13a.28.28 0 01-.282.28.281.281 0 01-.281-.28.28.28 0 01.48-.199.28.28 0 01.083.199zm-4.875 9.09c0 .895.73 1.62 1.63 1.62.899 0 1.628-.725 1.628-1.62v-2.766H10.85v2.766z" fill="#FFF" fill-rule="nonzero"/><path d="M12.19 20.492a.289.289 0 00.578 0v-3.169h-.578v3.169z" fill="#E7E7E7"/><path d="M16.063 17.026c0-.807-.413-1.558-1.094-1.991a2.362 2.362 0 01-1.094-1.99V5.108a6.911 6.911 0 00-2.792 0v7.935c0 .807-.413 1.558-1.094 1.991a2.362 2.362 0 00-1.094 1.99v.088c0 1 .814 1.809 1.82 1.809.852 0 1.568-.584 1.764-1.372a1.817 1.817 0 001.765 1.372c1.005 0 1.819-.81 1.819-1.809v-.088z" fill="#E4E4E4"/><path d="M14.271 15.587a.75.75 0 00-.73-.694h-2.124c-.39 0-.71.332-.73.716.009.753.808 1.373 1.793 1.373.99 0 1.791-.636 1.791-1.395" fill="#BABABA"/><path d="M16.222 9.829l-.74.078a.668.668 0 11-.141-1.327l.74-.078a.668.668 0 11.141 1.327m-7.485 0l.739.078a.668.668 0 10.141-1.327l-.74-.078a.668.668 0 10-.141 1.327" fill="#E5E5E5" fill-rule="nonzero"/><path d="M6.648 18.238a.41.41 0 01-.032-.002c-.175-.017-.23-.116-.35-.333-.03-.053-.1-.18-.118-.223-.614-1.353-.63-2.82-.563-4.077l.289-4.89a.325.325 0 01.569-.197.325.325 0 01.082.235l-.29 4.888c-.062 1.177-.05 2.548.506 3.775.015.03.11.202.155.283a.331.331 0 01.044.07.327.327 0 01-.292.47zm11.667-.337l.297.134-.297-.134zm-.005.337a.326.326 0 01-.291-.471.318.318 0 01.043-.07c.046-.081.14-.254.156-.286.555-1.224.567-2.595.505-3.774l-.29-4.886a.324.324 0 01.307-.343.326.326 0 01.344.305l.29 4.888c.066 1.259.05 2.726-.563 4.079-.038.075-.077.15-.119.223-.12.217-.175.316-.35.333a.352.352 0 01-.032.002z" fill="#BABABA" fill-rule="nonzero"/></g></g></svg>
