<svg xmlns="http://www.w3.org/2000/svg" viewBox="0 0 130 130"><g fill-rule="nonzero" fill="none"><circle fill="#F5F5F5" cx="64.941" cy="64.941" r="64.941"/><path d="M33.629 97.85a1.485 1.485 0 01-1.478-1.486l.181-64.979a3.114 3.114 0 013.117-3.079l46.724.13a3.117 3.117 0 013.096 3.096l-.182 64.979a1.485 1.485 0 01-1.485 1.475" fill="#85603A"/><path fill="#FFF" d="M36.061 32.252h45.105v62.099H36.061z"/><rect fill="#D6D6D6" x="40.279" y="38.811" width="35.663" height="2.09" rx="1.045"/><rect fill="#D6D6D6" x="40.279" y="43.515" width="29.226" height="2.09" rx="1.045"/><rect fill="#D6D6D6" x="40.279" y="48.222" width="27.08" height="2.09" rx="1.045"/><rect fill="#D6D6D6" x="40.279" y="55.928" width="35.663" height="2.09" rx="1.045"/><rect fill="#D6D6D6" x="40.279" y="60.635" width="35.663" height="2.09" rx="1.045"/><rect fill="#D6D6D6" x="40.279" y="65.339" width="32.451" height="2.09" rx="1.045"/><rect fill="#D6D6D6" x="40.279" y="70.046" width="34.377" height="2.09" rx="1.045"/><rect fill="#D6D6D6" x="40.279" y="86.132" width="14.174" height="2.09" rx="1.045"/><path d="M72.265 30.959c-1.59-1.028-2.303-.947-3.211-.975H64.86c.018-1.049.042-2.796.028-3.145-.024-.797-1-.8-1.845-1.486-.737-.6-1.104-2.254-1.104-2.254l-1.804 2.412-1.293-.028-1.53-2.418s-.3 1.502-1.398 2.156c-.573.35-1.747.765-1.8 1.419-.02.23 0 2.334 0 3.42-2.865.022-5.067.04-5.312.036-.74 0-1.51.51-2.166.992-.657.482-.94 1.475-1.028 1.79-.087.314-.031.538.311.541l27.433.077a.412.412 0 00.227-.2c.074-.143.276-1.31-1.314-2.337z" fill="#B2B2B2"/><path d="M59.534 21.142a2.446 2.446 0 100 4.893 2.446 2.446 0 000-4.893zm.224 3.67a1.227 1.227 0 11-.476-2.407 1.227 1.227 0 01.476 2.407z" fill="#B2B2B2"/><path d="M60.017 25.7a2.167 2.167 0 11-.98-4.222 2.167 2.167 0 01.98 4.221zm-.084-3.534a1.485 1.485 0 00-1.831 1.825c.134.498.522.89 1.02 1.027a1.485 1.485 0 001.835-1.824 1.454 1.454 0 00-1.024-1.028z" fill="#B2B2B2"/><path d="M105.81 59.71c-13.629 0-24.567-7.783-24.675-7.86l-.594-.434-.594.434c-.109.077-11.037 7.86-24.676 7.86h-1.01v11.077c0 27.807 24.151 37.253 26.28 37.253 2.128 0 26.28-9.436 26.28-37.253V59.71h-1.01z" fill="#00C599"/><g fill="#FFF"><path d="M88.414 84.182c-.891-.37-1.817-.755-2.54-1.65-.79-.964-1.098-2.016-1.398-3.04-.514-1.747-1.007-3.38-3.789-3.38h-.251c-2.796 0-3.271 1.643-3.788 3.38-.311 1.024-.622 2.076-1.398 3.04-.724.895-1.65 1.28-2.537 1.65-1.461.598-2.985 1.227-2.985 4.054 0 1.957.573 4.036 4.812 4.137a4.42 4.42 0 003.145-.964c.623-.433 1.217-.85 2.905-.85 1.687 0 2.268.417 2.893.85a4.337 4.337 0 002.932.968h.206c4.24-.101 4.809-2.18 4.809-4.138-.046-2.83-1.559-3.46-3.016-4.057zM77.5 75.134c1.65-.457 2.53-2.607 1.96-4.808-.569-2.202-2.376-3.614-4.015-3.145-1.639.468-2.53 2.607-1.964 4.808.567 2.202 2.37 3.607 4.02 3.145zM83.577 75.134c1.65.469 3.453-.95 4.023-3.145.57-2.194-.311-4.35-1.971-4.808-1.66-.458-3.439.95-4.009 3.145-.57 2.194.304 4.344 1.957 4.808zM72.084 80.551c1.646-.458 2.53-2.607 1.953-4.812-.577-2.205-2.366-3.606-4.015-3.145-1.65.461-2.53 2.614-1.964 4.808.566 2.195 2.376 3.607 4.026 3.15zM91.06 72.59c-1.647-.457-3.453.947-4.023 3.145-.57 2.199.315 4.355 1.964 4.813 1.65.457 3.446-.944 4.019-3.146.573-2.201-.308-4.364-1.96-4.812z"/></g></g></svg>
