<svg xmlns="http://www.w3.org/2000/svg" viewBox="0 0 236 68"><g fillRule="nonzero" fill="none"><path d="M235.217 61.233A6.767 6.767 0 01228.444 68H6.782A6.774 6.774 0 010 61.233V7.276A6.783 6.783 0 016.782.5h221.66a6.773 6.773 0 016.775 6.775v53.959z" fill="#000"/><path d="M51.653 33.879a10.242 10.242 0 014.878-8.594 10.485 10.485 0 00-8.26-4.466c-3.476-.364-6.846 2.08-8.617 2.08-1.805 0-4.532-2.043-7.468-1.983a11 11 0 00-9.258 5.646c-4.003 6.93-1.017 17.115 2.817 22.717 1.919 2.743 4.16 5.807 7.094 5.699 2.871-.12 3.944-1.83 7.409-1.83 3.433 0 4.439 1.83 7.432 1.76 3.08-.05 5.021-2.755 6.873-5.524a22.693 22.693 0 003.142-6.4 9.897 9.897 0 01-6.042-9.105zM46 17.135a10.084 10.084 0 002.306-7.224 10.26 10.26 0 00-6.638 3.435 9.595 9.595 0 00-2.368 6.957c2.6.026 5.07-1.141 6.7-3.168zM93.2 54.584H89.19l-2.198-6.906h-7.639l-2.093 6.906h-3.906l7.568-23.51h4.675l7.604 23.51zm-6.872-9.803l-1.988-6.138c-.21-.628-.605-2.105-1.186-4.43h-.07c-.232 1.001-.604 2.478-1.116 4.43l-1.953 6.139h6.313zM112.663 45.9a9.636 9.636 0 01-2.336 6.835 6.834 6.834 0 01-5.198 2.232 5.196 5.196 0 01-4.813-2.406h-.07v8.93h-3.767V43.213c0-1.813-.047-3.674-.14-5.581h3.314l.21 2.686h.07a6.703 6.703 0 0110.725-.664 9.354 9.354 0 012.005 6.245zm-3.837.137a6.984 6.984 0 00-1.116-4.08 3.856 3.856 0 00-3.279-1.675c-.925 0-1.821.327-2.528.925a4.285 4.285 0 00-1.483 2.425c-.103.375-.162.761-.174 1.15v2.825a4.527 4.527 0 001.133 3.123 3.762 3.762 0 002.948 1.273 3.857 3.857 0 003.313-1.639 7.227 7.227 0 001.187-4.327zM132.162 45.9a9.63 9.63 0 01-2.34 6.835 6.828 6.828 0 01-5.195 2.232 5.193 5.193 0 01-4.813-2.407h-.07v8.93h-3.766V43.213c0-1.813-.047-3.674-.14-5.581h3.314l.209 2.686h.07a6.704 6.704 0 0110.727-.664 9.362 9.362 0 012.004 6.245zm-3.837.137a6.978 6.978 0 00-1.118-4.08 3.853 3.853 0 00-3.277-1.675c-.926 0-1.823.327-2.53.925a4.291 4.291 0 00-1.48 2.425c-.104.375-.162.761-.175 1.15v2.825a4.537 4.537 0 001.13 3.123 3.765 3.765 0 002.951 1.273 3.856 3.856 0 003.312-1.639 7.228 7.228 0 001.187-4.327zM153.963 47.992a6.264 6.264 0 01-2.088 4.882 9.253 9.253 0 01-6.404 2.059c-2.13.1-4.243-.408-6.094-1.465l.873-3.14a10.316 10.316 0 005.445 1.501 5.146 5.146 0 003.316-.96 3.137 3.137 0 001.184-2.57 3.275 3.275 0 00-.977-2.41 9.102 9.102 0 00-3.243-1.818c-4.117-1.536-6.174-3.783-6.173-6.743a5.972 5.972 0 012.163-4.751 8.536 8.536 0 015.756-1.852 11.41 11.41 0 015.334 1.116l-.942 3.07a9.26 9.26 0 00-4.5-1.081 4.548 4.548 0 00-3.101.977 2.789 2.789 0 00-.942 2.128 2.871 2.871 0 001.08 2.301 12.205 12.205 0 003.42 1.815 11.608 11.608 0 014.464 2.86 5.996 5.996 0 011.429 4.081zM166.416 40.458h-4.151v8.231c0 2.093.732 3.14 2.198 3.14a6.759 6.759 0 001.673-.174l.104 2.86c-.945.31-1.936.45-2.93.418a4.519 4.519 0 01-3.488-1.36 6.683 6.683 0 01-1.256-4.57v-8.545h-2.474v-2.826h2.474v-3.105l3.699-1.116v4.221h4.15v2.826zM185.148 45.968a9.302 9.302 0 01-2.232 6.418 7.973 7.973 0 01-6.211 2.581 7.578 7.578 0 01-5.945-2.475 9.017 9.017 0 01-2.215-6.244 9.209 9.209 0 012.284-6.453 7.907 7.907 0 016.155-2.512 7.742 7.742 0 016.001 2.478 8.932 8.932 0 012.163 6.207zm-3.909.123a7.635 7.635 0 00-1.011-4.023 3.723 3.723 0 00-3.381-2.03 3.776 3.776 0 00-3.454 2.03 7.775 7.775 0 00-1.012 4.094 7.624 7.624 0 001.012 4.021 3.849 3.849 0 006.8-.034 7.642 7.642 0 001.046-4.058zM197.39 40.944a6.513 6.513 0 00-1.186-.103 3.562 3.562 0 00-3.071 1.5 5.638 5.638 0 00-.942 3.348v8.895h-3.765l.035-11.614c0-1.955-.047-3.734-.142-5.338h3.282l.138 3.243h.103a5.787 5.787 0 011.884-2.684 4.556 4.556 0 012.723-.908c.315-.002.63.022.942.07v3.591zM214.236 45.306a8.856 8.856 0 01-.138 1.708h-11.3a4.92 4.92 0 001.639 3.839 5.594 5.594 0 003.695 1.185 12.51 12.51 0 004.572-.802l.59 2.615a14.154 14.154 0 01-5.683 1.047 8.226 8.226 0 01-6.193-2.32 8.57 8.57 0 01-2.25-6.227 9.712 9.712 0 012.094-6.383 7.218 7.218 0 015.928-2.72 6.315 6.315 0 015.549 2.72 9.165 9.165 0 011.497 5.338zm-3.592-.977a5.12 5.12 0 00-.731-2.895 3.29 3.29 0 00-3.002-1.57 3.574 3.574 0 00-2.999 1.536 5.604 5.604 0 00-1.114 2.93h7.846zM85.083 16.61a5.8 5.8 0 01-1.869 4.696 7.433 7.433 0 01-4.917 1.456c-.904.008-1.809-.038-2.708-.137V11.263a19.923 19.923 0 013.188-.24 6.874 6.874 0 014.575 1.32 5.329 5.329 0 011.73 4.267zm-1.953.052a4.219 4.219 0 00-1.071-3.103 4.22 4.22 0 00-3.128-1.079c-.5-.007-1 .033-1.491.12v8.637c.415.043.833.06 1.25.052a4.381 4.381 0 003.282-1.183 4.73 4.73 0 001.158-3.444zM95.433 18.426a4.565 4.565 0 01-1.098 3.153 3.914 3.914 0 01-3.05 1.27 3.726 3.726 0 01-2.923-1.218 4.433 4.433 0 01-1.087-3.067 4.527 4.527 0 011.122-3.17 3.886 3.886 0 013.024-1.234 3.808 3.808 0 012.949 1.216 4.396 4.396 0 011.063 3.05zm-1.92.06a3.759 3.759 0 00-.498-1.976 1.828 1.828 0 00-1.66-.997c-.71-.02-1.37.368-1.698.997a3.827 3.827 0 00-.497 2.01 3.76 3.76 0 00.497 1.978 1.892 1.892 0 003.341-.018 3.747 3.747 0 00.514-1.993zM109.312 14.33l-2.605 8.33h-1.696l-1.08-3.617a26.693 26.693 0 01-.67-2.69h-.032c-.16.911-.383 1.81-.67 2.69l-1.147 3.616h-1.715l-2.45-8.328h1.904l.942 3.958c.227.937.416 1.828.565 2.674h.033c.138-.697.367-1.582.687-2.657l1.182-3.975h1.508l1.131 3.89c.275.948.497 1.862.668 2.742h.052c.139-.924.328-1.839.566-2.742l1.01-3.89h1.817zM118.91 22.66h-1.851v-4.77c0-1.47-.56-2.205-1.68-2.205a1.67 1.67 0 00-1.336.606c-.34.398-.522.905-.514 1.428v4.94h-1.851v-5.946c0-.731-.023-1.526-.068-2.382h1.627l.086 1.301h.052c.226-.413.557-.76.96-1.005a3.123 3.123 0 011.678-.467c.721-.022 1.42.25 1.938.754a3.662 3.662 0 01.959 2.759v4.986zM124.016 22.66h-1.85V10.51h1.85zM134.916 18.426a4.565 4.565 0 01-1.097 3.153 3.916 3.916 0 01-3.05 1.27 3.72 3.72 0 01-2.923-1.218 4.432 4.432 0 01-1.087-3.067 4.529 4.529 0 011.121-3.17 3.885 3.885 0 013.023-1.234 3.812 3.812 0 012.95 1.216 4.397 4.397 0 011.063 3.05zm-1.922.06a3.759 3.759 0 00-.497-1.976 1.825 1.825 0 00-1.66-.997c-.71-.02-1.37.367-1.697.997a3.828 3.828 0 00-.497 2.01c-.02.693.152 1.377.497 1.978a1.868 1.868 0 001.68.996c.7.004 1.344-.389 1.66-1.014a3.73 3.73 0 00.514-1.993zM143.877 22.66h-1.663l-.138-.96h-.052a2.852 2.852 0 01-2.433 1.148 2.508 2.508 0 01-1.9-.755 2.365 2.365 0 01-.653-1.696 2.59 2.59 0 011.277-2.33 6.648 6.648 0 013.591-.789v-.154c0-1.097-.576-1.645-1.728-1.645a3.863 3.863 0 00-2.17.617l-.377-1.217a5.33 5.33 0 012.857-.72c2.178 0 3.267 1.149 3.268 3.445v3.068c-.01.664.03 1.329.121 1.987zm-1.922-2.863v-1.284c-2.043-.035-3.064.525-3.064 1.678-.028.362.101.719.355.978.249.22.573.336.904.325.41 0 .808-.136 1.132-.386a1.574 1.574 0 00.673-1.31zM154.398 22.66h-1.643l-.086-1.338h-.052a2.767 2.767 0 01-2.674 1.526 3.132 3.132 0 01-2.502-1.182 4.606 4.606 0 01-.993-3.068 4.823 4.823 0 011.08-3.273 3.317 3.317 0 012.57-1.165 2.497 2.497 0 012.347 1.13h.034v-4.78h1.853v9.905c0 .81.022 1.559.066 2.244zm-1.92-3.513v-1.389a2.648 2.648 0 00-.05-.582 2.103 2.103 0 00-.67-1.123 1.817 1.817 0 00-1.239-.454 1.901 1.901 0 00-1.628.823 3.53 3.53 0 00-.594 2.107 3.294 3.294 0 00.57 2.006c.365.53.974.839 1.618.822a1.787 1.787 0 001.463-.685c.356-.427.545-.97.53-1.525zM170.232 18.426a4.566 4.566 0 01-1.097 3.153 3.912 3.912 0 01-3.05 1.27 3.73 3.73 0 01-2.923-1.218 4.432 4.432 0 01-1.087-3.067 4.528 4.528 0 011.121-3.17 3.888 3.888 0 013.026-1.234 3.805 3.805 0 012.947 1.216 4.396 4.396 0 011.063 3.05zm-1.919.06a3.76 3.76 0 00-.496-1.976 1.83 1.83 0 00-1.664-.997 1.86 1.86 0 00-1.697.997 3.827 3.827 0 00-.497 2.01 3.76 3.76 0 00.497 1.978 1.893 1.893 0 003.343-.018 3.76 3.76 0 00.514-1.993zM180.187 22.66h-1.85v-4.77c0-1.47-.56-2.205-1.68-2.205a1.664 1.664 0 00-1.336.606c-.34.398-.522.905-.514 1.428v4.94h-1.852v-5.946c0-.731-.022-1.526-.066-2.382h1.625l.086 1.301h.052c.227-.413.557-.76.96-1.005a3.128 3.128 0 011.68-.467c.72-.022 1.42.25 1.935.754a3.655 3.655 0 01.96 2.759v4.986zM192.646 15.719h-2.039v4.044c0 1.029.362 1.543 1.08 1.543.278.006.555-.023.825-.086l.048 1.405c-.464.152-.95.222-1.439.206a2.212 2.212 0 01-1.711-.668 3.262 3.262 0 01-.618-2.245v-4.2h-1.218v-1.387h1.218v-1.525l1.815-.548v2.073h2.04v1.388zM202.45 22.66h-1.854v-4.736c0-1.493-.559-2.24-1.677-2.239a1.766 1.766 0 00-1.766 1.3c-.061.216-.09.44-.086.666v5.008h-1.85V10.51h1.85v5.02h.034a2.8 2.8 0 012.502-1.37c.711-.02 1.4.252 1.904.755a3.79 3.79 0 01.942 2.793v4.952zM212.56 18.101c.003.281-.02.563-.07.84h-5.552c-.023.716.271 1.406.805 1.884a2.757 2.757 0 001.818.584 6.15 6.15 0 002.246-.395l.29 1.286a6.977 6.977 0 01-2.795.514 4.033 4.033 0 01-3.04-1.14 4.2 4.2 0 01-1.104-3.059 4.77 4.77 0 011.028-3.136 3.54 3.54 0 012.912-1.336 3.097 3.097 0 012.723 1.336c.513.776.77 1.693.738 2.622zm-1.767-.48c.026-.499-.1-.995-.36-1.422a1.616 1.616 0 00-1.473-.771 1.76 1.76 0 00-1.473.754 2.79 2.79 0 00-.549 1.44h3.855z" fill="#FFF"/></g></svg>
